<svg width="170" height="165" viewBox="0 0 170 165" fill="none" xmlns="http://www.w3.org/2000/svg">
<path d="M116.875 140.147L103.116 126.792L95.625 134.062L116.875 154.687L159.375 113.437L151.884 106.167L116.875 140.147Z" fill="white"/>
<path d="M132.812 25.7812H116.875V20.625C116.867 17.8925 115.744 15.2742 113.754 13.342C111.763 11.4098 109.065 10.3207 106.25 10.3125H63.75C60.9347 10.3207 58.237 11.4098 56.2463 13.342C54.2555 15.2742 53.1334 17.8925 53.125 20.625V25.7812H37.1875C34.3722 25.7894 31.6745 26.8785 29.6838 28.8107C27.693 30.7429 26.5709 33.3612 26.5625 36.0938V144.375C26.5709 147.108 27.693 149.726 29.6838 151.658C31.6745 153.59 34.3722 154.679 37.1875 154.688H85V144.375H37.1875V36.0938H53.125V51.5625H116.875V36.0938H132.812V92.8125H143.438V36.0938C143.429 33.3612 142.307 30.7429 140.316 28.8107C138.325 26.8785 135.628 25.7894 132.812 25.7812ZM106.25 41.25H63.75V20.625H106.25V41.25Z" fill="white"/>
</svg>
