<svg width="170" height="165" viewBox="0 0 170 165" fill="none" xmlns="http://www.w3.org/2000/svg">
<g clip-path="url(#clip0_5:20)">
<path d="M82.7483 47.7791L28.3335 96.7151V149.531C28.3335 150.899 28.8311 152.21 29.7166 153.177C30.6022 154.144 31.8033 154.688 33.0558 154.688L66.129 154.594C67.3773 154.587 68.5724 154.041 69.4529 153.075C70.3334 152.108 70.8276 150.801 70.8276 149.438V118.594C70.8276 117.226 71.3251 115.915 72.2107 114.948C73.0963 113.981 74.2974 113.438 75.5498 113.438H94.4387C95.6911 113.438 96.8922 113.981 97.7778 114.948C98.6634 115.915 99.1609 117.226 99.1609 118.594V149.415C99.159 150.094 99.2797 150.766 99.5161 151.393C99.7526 152.021 100.1 152.591 100.539 153.072C100.978 153.552 101.499 153.933 102.073 154.194C102.647 154.454 103.262 154.588 103.883 154.588L136.945 154.688C138.197 154.688 139.398 154.144 140.284 153.177C141.169 152.21 141.667 150.899 141.667 149.531V96.6797L87.2639 47.7791C86.6243 47.2162 85.8276 46.9092 85.0061 46.9092C84.1846 46.9092 83.3878 47.2162 82.7483 47.7791ZM168.702 81.0401L144.028 58.8328V14.1958C144.028 13.1702 143.655 12.1865 142.991 11.4613C142.326 10.736 141.426 10.3286 140.486 10.3286H123.958C123.019 10.3286 122.118 10.736 121.454 11.4613C120.79 12.1865 120.417 13.1702 120.417 14.1958V37.5955L93.9931 13.8574C91.4573 11.5789 88.2753 10.3332 84.9913 10.3332C81.7074 10.3332 78.5254 11.5789 75.9896 13.8574L1.28111 81.0401C0.922484 81.3638 0.625774 81.7615 0.407938 82.2104C0.190102 82.6593 0.0554089 83.1507 0.0115553 83.6564C-0.0322982 84.1622 0.0155471 84.6725 0.152357 85.1581C0.289168 85.6436 0.512262 86.095 0.808892 86.4864L8.33493 96.4767C8.63075 96.8694 8.99462 97.1946 9.40569 97.4337C9.81676 97.6727 10.267 97.8208 10.7305 97.8696C11.1941 97.9184 11.662 97.8669 12.1073 97.718C12.5526 97.5691 12.9666 97.3258 13.3257 97.002L82.7483 34.5662C83.3878 34.0033 84.1846 33.6963 85.0061 33.6963C85.8276 33.6963 86.6243 34.0033 87.2639 34.5662L156.689 97.002C157.048 97.3259 157.461 97.5695 157.906 97.7188C158.351 97.8682 158.818 97.9205 159.281 97.8726C159.744 97.8247 160.194 97.6776 160.606 97.4398C161.017 97.2019 161.381 96.8779 161.677 96.4863L169.203 86.4961C169.5 86.1024 169.722 85.6487 169.857 85.161C169.992 84.6733 170.038 84.1612 169.991 83.6542C169.944 83.1472 169.807 82.6553 169.585 82.2067C169.364 81.758 169.064 81.3616 168.702 81.0401Z" fill="white"/>
</g>
<defs>
<clipPath id="clip0_5:20">
<rect width="170" height="165" fill="white"/>
</clipPath>
</defs>
</svg>
