<svg width="170" height="165" viewBox="0 0 170 165" fill="none" xmlns="http://www.w3.org/2000/svg">
<path d="M134.583 13.75H35.4167C27.6037 13.75 21.25 19.9169 21.25 27.5V110C21.25 117.583 27.6037 123.75 35.4167 123.75H60.2083L85 151.25L109.792 123.75H134.583C142.396 123.75 148.75 117.583 148.75 110V27.5C148.75 19.9169 142.396 13.75 134.583 13.75ZM63.75 82.5C61.8891 82.4995 60.0466 82.1434 58.3276 81.4518C56.6085 80.7602 55.0467 79.7467 53.7312 78.4693C52.4157 77.1918 51.3723 75.6754 50.6606 74.0066C49.9489 72.3378 49.5829 70.5492 49.5833 68.7431C49.5838 66.937 49.9508 65.1486 50.6633 63.4802C51.3759 61.8117 52.42 60.2958 53.7362 59.019C55.0524 57.7422 56.6147 56.7295 58.3341 56.0387C60.0535 55.348 61.8962 54.9927 63.7571 54.9931C67.5153 54.994 71.1191 56.4439 73.7759 59.0238C76.4327 61.6038 77.9247 65.1024 77.9238 68.75C77.9228 72.3976 76.429 75.8955 73.7709 78.4741C71.1128 81.0528 67.5082 82.5009 63.75 82.5ZM106.25 82.5C104.389 82.4995 102.547 82.1434 100.828 81.4518C99.1085 80.7602 97.5467 79.7467 96.2312 78.4693C94.9157 77.1918 93.8723 75.6754 93.1606 74.0066C92.4489 72.3378 92.0829 70.5492 92.0833 68.7431C92.0838 66.937 92.4508 65.1486 93.1633 63.4802C93.8759 61.8117 94.92 60.2958 96.2362 59.019C97.5524 57.7422 99.1147 56.7295 100.834 56.0387C102.553 55.348 104.396 54.9927 106.257 54.9931C110.015 54.994 113.619 56.4439 116.276 59.0238C118.933 61.6038 120.425 65.1024 120.424 68.75C120.423 72.3976 118.929 75.8955 116.271 78.4741C113.613 81.0528 110.008 82.5009 106.25 82.5Z" fill="white"/>
</svg>
